<svg width="17" height="21" viewBox="0 0 17 21" fill="none" xmlns="http://www.w3.org/2000/svg">
<g clip-path="url(#clip0_1_180)">
<path d="M14.0378 10.9501C14.0137 8.47993 16.0596 7.27725 16.1541 7.22165C14.9959 5.53159 13.2002 5.30181 12.5683 5.28327C11.0617 5.12576 9.59958 6.1876 8.83238 6.1876C8.04851 6.1876 6.86436 5.29995 5.59125 5.32589C3.94938 5.35184 2.41498 6.3025 1.57366 7.77574C-0.160871 10.7834 1.13261 15.2013 2.79673 17.6325C3.63064 18.8222 4.60168 20.1528 5.87478 20.1046C7.12009 20.0527 7.58523 19.3115 9.08812 19.3115C10.578 19.3115 11.0153 20.1046 12.3144 20.075C13.6505 20.0527 14.4919 18.8797 15.2943 17.6771C16.2579 16.3132 16.6433 14.9696 16.6582 14.9011C16.6266 14.8899 14.0638 13.9115 14.0378 10.9501Z" fill="black"/>
<path d="M11.5843 3.6858C12.2533 2.84818 12.7147 1.70665 12.5849 0.550293C11.6158 0.594768 10.4039 1.22113 9.7052 2.04021C9.08811 2.76293 8.53403 3.94708 8.67857 5.05897C9.76822 5.14051 10.8856 4.51044 11.5843 3.6858Z" fill="black"/>
</g>
<defs>
<clipPath id="clip0_1_180">
<rect width="16" height="19.5556" fill="white" transform="translate(0.75 0.550293)"/>
</clipPath>
</defs>
</svg>
